<svg id="Layer_1" height="512" viewBox="0 0 512 512" width="512" xmlns="http://www.w3.org/2000/svg" data-name="Layer 1"><path d="m257.57 413.261a1.9 1.9 0 0 1 -1.35.55l-1.54-174.2h.02a16.629 16.629 0 0 1 16.65-16.611h94.1a12.432 12.432 0 0 1 12.44 12.43v154.42a12.438 12.438 0 0 1 -12.44 12.43h-95.8a1.916 1.916 0 0 0 -1.34.54z" fill="#e2e4ed"/><path d="m254.68 239.611 1.54 174.2a1.936 1.936 0 0 1 -1.34-.55l-10.73-10.44a1.916 1.916 0 0 0 -1.34-.54h-97.03a12.438 12.438 0 0 1 -12.44-12.43v-154.42a12.432 12.432 0 0 1 12.44-12.431h92.25a16.636 16.636 0 0 1 16.65 16.611z" fill="#f4f8fc"/><path d="m105.09 214.641v227.33h-50.55v-227.33h47.77a19.248 19.248 0 0 0 2.75-.19z" fill="#a0eaea"/><path d="m455.19 214.641-.81 227.33h-45.96l1.05-227.33z" fill="#a0eaea"/><rect fill="#ccd3df" height="51.53" rx="8" width="480" x="16" y="441.97"/><path d="m475.07 184.161v10.62a19.869 19.869 0 0 1 -19.88 19.86h-47.76a19.866 19.866 0 0 1 -19.87-19.86v-10.62z" fill="#eadf53"/><path d="m122.19 184.161v10.62a19.866 19.866 0 0 1 -17.13 19.67 19.248 19.248 0 0 1 -2.75.19h-47.77a19.864 19.864 0 0 1 -19.86-19.86v-10.62z" fill="#eadf53"/><path d="m488.56 123.93-219.5-102.53a30.858 30.858 0 0 0 -26.12 0l-219.5 102.53c-4.45 1.73-7.44 6.441-7.44 11.73v36.1c0 6.851 4.94 12.4 11.03 12.4h457.94c6.09 0 11.03-5.549 11.03-12.4v-36.1c0-5.289-2.99-10-7.44-11.73z" fill="#ccd3df"/><circle cx="258" cy="109.174" fill="#3090fc" r="40.5"/><path d="m162.444 390.733v-154.42a12.432 12.432 0 0 1 12.44-12.43h-30a12.432 12.432 0 0 0 -12.44 12.43v154.42a12.438 12.438 0 0 0 12.44 12.43h30a12.438 12.438 0 0 1 -12.44-12.43z" fill="#dae1ea"/><path d="m45.1 485.383v-35.53a8 8 0 0 1 8-8h-30a8 8 0 0 0 -8 8v35.53a8 8 0 0 0 8 8h30a8 8 0 0 1 -8-8z" fill="#b0b5ca"/><path d="m45.1 172.643v-36.1c0-5.29 2.99-10 7.44-11.73l217.56-101.624-1.94-.906a30.858 30.858 0 0 0 -26.12 0l-219.5 102.53c-4.45 1.73-7.44 6.44-7.44 11.73v36.1c0 6.85 4.94 12.4 11.03 12.4h30c-6.086 0-11.03-5.55-11.03-12.4z" fill="#b0b5ca"/><g fill="#9fa9b7"><path d="m228.927 256.112h-44.775a6 6 0 1 1 0-12h44.775a6 6 0 0 1 0 12z"/><path d="m162.072 256.112h-5.639a6 6 0 1 1 0-12h5.639a6 6 0 0 1 0 12z"/><path d="m228.927 296.993h-10.775a6 6 0 0 1 0-12h10.775a6 6 0 0 1 0 12z"/><path d="m196.283 296.993h-39.85a6 6 0 0 1 0-12h39.85a6 6 0 0 1 0 12z"/><path d="m228.927 337.874h-27.018a6 6 0 0 1 0-12h27.018a6 6 0 1 1 0 12z"/><path d="m179.815 337.874h-23.382a6 6 0 0 1 0-12h23.382a6 6 0 0 1 0 12z"/><path d="m228.927 378.755h-2.956a6 6 0 0 1 0-12h2.956a6 6 0 1 1 0 12z"/><path d="m204.172 378.755h-47.739a6 6 0 0 1 0-12h47.739a6 6 0 1 1 0 12z"/><path d="m353.358 256.112h-24.247a6 6 0 1 1 0-12h24.247a6 6 0 0 1 0 12z"/><path d="m307.68 256.112h-26.816a6 6 0 1 1 0-12h26.816a6 6 0 1 1 0 12z"/><path d="m353.8 296.993h-.442a6 6 0 0 1 0-12h.442a6 6 0 0 1 0 12z"/><path d="m331.443 296.993h-50.579a6 6 0 0 1 0-12h50.579a6 6 0 0 1 0 12z"/><path d="m353.358 337.874h-19.527a6 6 0 0 1 0-12h19.527a6 6 0 0 1 0 12z"/><path d="m311.62 337.874h-30.756a6 6 0 0 1 0-12h30.756a6 6 0 0 1 0 12z"/><path d="m353.358 378.755h-5.122a6 6 0 0 1 0-12h5.122a6 6 0 1 1 0 12z"/><path d="m327.61 378.755h-46.746a6 6 0 1 1 0-12h46.746a6 6 0 0 1 0 12z"/></g><path d="m147.612 140.5h-131.612v12h131.612a6 6 0 0 0 0-12z" fill="#6d7486"/><path d="m363.925 140.5a6 6 0 0 0 0 12h132.075v-12z" fill="#6d7486"/></svg>